<?xml version="1.0" standalone="no"?>
<!DOCTYPE svg PUBLIC "-//W3C//DTD SVG 20010904//EN"
 "http://www.w3.org/TR/2001/REC-SVG-20010904/DTD/svg10.dtd">
<svg version="1.0" xmlns="http://www.w3.org/2000/svg"
 width="640.000000pt" height="320.000000pt" viewBox="0 0 640.000000 320.000000"
 preserveAspectRatio="xMidYMid meet">
<metadata>
Created by potrace 1.15, written by Peter Selinger 2001-2017
</metadata>
<g transform="translate(0.000000,320.000000) scale(0.100000,-0.100000)"
fill="#000000" stroke="none">
<path d="M4345 2675 c-44 -8 -86 -14 -94 -14 -8 -1 -12 -3 -9 -6 2 -3 57 3
121 12 146 20 169 15 257 -68 l65 -61 -73 60 c-43 37 -85 64 -106 67 -34 7
-1314 -167 -1371 -186 -16 -5 -41 -20 -55 -32 -14 -12 -11 -8 6 10 20 20 47
34 71 38 21 3 47 10 58 15 25 11 -35 3 -81 -11 -30 -9 -118 -89 -97 -89 7 0 6
-12 -3 -37 -7 -22 -11 -62 -9 -93 l4 -55 -9 45 c-5 25 -7 61 -4 80 3 30 2 31
-5 10 -5 -14 -6 -49 -3 -78 5 -52 4 -53 -19 -48 -56 13 -591 87 -600 84 -6 -2
137 -25 317 -52 284 -41 370 -56 327 -56 -5 0 -272 38 -592 85 -321 47 -603
85 -627 85 -47 0 -91 -17 -113 -44 -20 -24 -31 -19 -31 15 0 17 -5 39 -10 50
-8 13 -7 19 0 19 6 0 8 5 5 11 -4 6 -10 8 -13 5 -3 -3 -33 21 -67 53 -42 40
-73 62 -96 66 -50 9 -1366 -63 -1392 -76 -12 -6 -37 -25 -56 -43 -20 -19 -29
-23 -21 -11 6 11 26 30 43 43 18 12 26 22 20 22 -6 0 -27 -15 -47 -33 l-35
-33 3 -385 c3 -376 23 -877 35 -891 3 -4 -2 140 -11 320 -10 180 -17 354 -15
387 1 33 13 -145 26 -395 13 -250 28 -466 33 -480 7 -20 7 -23 -3 -12 -7 6
-16 47 -19 90 l-7 77 -1 -63 c-2 -64 20 -138 37 -128 5 4 13 1 17 -5 4 -8 3
-9 -4 -5 -7 4 -12 3 -12 -3 0 -14 69 -65 77 -57 3 3 2 6 -3 6 -5 0 -20 10 -34
21 -14 11 0 6 30 -11 123 -70 52 -67 717 -31 572 30 598 31 608 14 21 -38 131
-134 165 -143 19 -6 326 -53 682 -105 672 -97 677 -98 734 -60 43 28 57 74 90
290 18 116 32 195 33 177 1 -35 28 -85 41 -77 5 3 12 0 16 -6 4 -8 3 -9 -4 -5
-20 12 -13 -10 8 -29 11 -10 20 -13 20 -8 0 6 26 -3 58 -19 31 -17 70 -34 86
-39 20 -6 204 16 629 76 331 46 603 83 605 80 2 -2 -16 -6 -40 -10 -23 -4
-160 -24 -303 -45 -143 -21 -250 -38 -239 -39 18 -1 461 60 536 73 23 5 28 1
38 -29 12 -38 113 -135 166 -160 32 -15 221 -36 304 -34 25 1 -25 7 -110 15
-85 7 -167 17 -181 23 -44 16 -150 111 -166 148 -8 19 -12 37 -10 40 3 2 10
-12 17 -32 12 -38 110 -128 158 -146 36 -14 1338 -112 1380 -104 22 4 51 21
74 45 21 21 38 35 38 31 0 -11 -62 -67 -89 -81 -17 -9 -61 -11 -150 -7 l-126
5 117 -10 c64 -6 129 -7 143 -4 37 9 112 82 124 119 11 36 45 461 39 498 -2
13 -11 -88 -22 -226 -10 -137 -22 -257 -26 -264 -4 -8 -6 5 -3 30 3 24 22 262
43 529 22 267 37 440 35 385 -3 -55 -7 -145 -10 -200 -3 -69 0 -53 9 50 16
188 16 641 0 638 -6 -1 -32 22 -58 52 -32 37 -58 58 -84 65 -35 10 -1187 100
-1322 103 -52 2 -73 -3 -105 -21 -34 -21 -37 -21 -15 -3 49 41 72 41 478 10
213 -16 391 -27 397 -25 5 2 3 5 -5 5 -8 1 -187 14 -397 31 -263 20 -392 26
-415 20 -35 -10 -108 -65 -108 -81 0 -6 5 -7 12 -3 7 4 8 3 4 -5 -4 -6 -11 -9
-15 -7 -3 3 -8 -15 -9 -38 -1 -24 -6 -54 -11 -67 -9 -22 -10 -21 -10 11 0 19
4 43 8 54 4 10 3 41 -2 70 -18 99 -36 133 -100 192 -97 88 -123 95 -282 69z
m222 -77 l35 -36 53 -370 53 -371 -28 -366 c-16 -202 -30 -368 -32 -370 -6 -5
-1243 -177 -1278 -178 -45 0 -92 24 -115 60 -14 21 -40 183 -112 688 -54 381
-91 674 -88 693 10 55 61 101 125 113 159 31 1243 178 1293 175 51 -2 62 -6
94 -38z m-3042 -88 c57 -35 63 -62 77 -336 l12 -249 -69 -475 c-37 -261 -71
-478 -74 -482 -6 -7 -1105 -68 -1221 -68 -78 0 -124 24 -145 74 -10 24 -24
220 -50 706 -35 664 -35 673 -17 709 38 74 19 71 676 106 740 41 769 41 811
15z m4040 -120 c729 -56 712 -53 749 -125 l20 -38 -52 -674 c-55 -729 -52
-710 -115 -757 -20 -15 -41 -20 -80 -19 -73 2 -1265 92 -1307 99 -21 4 -48 20
-72 44 -37 36 -38 40 -38 106 1 38 22 349 49 691 53 684 50 667 121 704 19 11
41 19 50 19 8 0 312 -23 675 -50z m-3110 -125 c324 -47 591 -88 593 -89 2 -2
26 -165 54 -362 l51 -359 -53 -365 c-29 -201 -59 -380 -68 -398 -16 -35 -53
-66 -92 -75 -14 -3 -325 38 -692 91 -731 107 -704 101 -742 176 l-19 38 97
666 c54 367 104 678 111 692 27 53 83 83 140 75 17 -3 295 -43 620 -90z"/>
<path d="M3818 2326 c-130 -17 -148 -22 -148 -38 0 -27 141 -1022 145 -1027 4
-3 296 37 301 42 5 5 -136 1011 -144 1027 -6 14 -23 13 -154 -4z m186 -507
c38 -264 66 -482 64 -483 -2 -3 -217 -33 -218 -32 -2 3 -137 961 -136 963 1 2
184 30 207 32 14 1 26 -71 83 -480z"/>
<path d="M3807 2257 l-67 -9 5 -32 c3 -17 32 -222 65 -455 33 -233 61 -425 62
-426 9 -7 162 22 165 32 2 6 -23 205 -56 442 -34 237 -61 438 -61 446 0 17
-12 17 -113 2z"/>
<path d="M703 2275 c-192 -42 -348 -191 -398 -380 -19 -74 -19 -223 0 -295 68
-256 294 -415 564 -397 47 3 113 15 146 26 l60 20 41 -47 c40 -46 41 -46 65
-30 13 10 62 53 109 97 l85 79 -26 29 c-51 57 -51 57 -25 104 40 71 59 155 60
254 0 167 -47 288 -155 398 -133 133 -326 185 -526 142z m311 -54 c154 -54
262 -169 310 -330 20 -67 21 -217 2 -286 -14 -55 -60 -150 -76 -160 -6 -4 4
-23 25 -48 19 -22 35 -43 35 -47 0 -8 -137 -130 -147 -130 -4 0 -23 18 -43 40
l-35 39 -70 -24 c-144 -49 -284 -42 -416 21 -333 160 -366 665 -56 865 56 37
150 73 212 83 62 9 201 -3 259 -23z"/>
<path d="M698 2206 c-78 -23 -137 -56 -197 -112 -158 -146 -193 -388 -86 -594
27 -51 112 -137 170 -170 129 -74 338 -80 469 -14 29 14 31 13 71 -26 l42 -41
57 52 57 52 -36 37 -36 37 34 49 c53 80 72 152 71 274 -1 79 -6 119 -22 162
-47 129 -145 230 -270 279 -71 28 -250 36 -324 15z m226 -150 c66 -20 111 -53
151 -111 67 -97 81 -238 34 -345 l-20 -45 -61 63 -60 62 -52 -47 c-28 -26 -52
-51 -54 -55 -2 -4 22 -35 53 -68 l58 -60 -29 -11 c-53 -20 -137 -22 -198 -5
-79 23 -155 97 -186 181 -42 116 -24 259 45 349 67 88 202 127 319 92z"/>
<path d="M731 2026 c-51 -18 -109 -72 -138 -129 -24 -46 -27 -63 -27 -147 0
-65 6 -106 16 -130 52 -114 134 -170 249 -170 107 0 109 4 44 70 l-57 57 72
64 c39 35 74 65 79 67 4 1 31 -22 60 -53 29 -30 54 -55 55 -55 9 0 26 96 26
149 0 117 -62 224 -154 267 -58 27 -165 32 -225 10z m205 -45 c81 -37 134
-135 134 -250 l0 -55 -50 49 -49 48 -98 -88 c-54 -49 -102 -93 -108 -97 -5 -5
9 -26 35 -53 l44 -45 -32 0 c-45 0 -119 37 -147 74 -107 140 -71 353 70 417
53 24 147 24 201 0z"/>
<path d="M5086 2108 c-4 -51 -9 -116 -12 -144 l-6 -51 196 -13 c108 -7 196
-15 196 -17 0 -2 -97 -116 -215 -253 l-215 -249 -7 -103 c-5 -57 -8 -110 -8
-118 0 -12 67 -20 410 -46 226 -17 411 -30 413 -29 5 4 25 275 21 279 -2 2
-71 9 -154 15 -82 6 -171 14 -197 17 l-47 6 216 250 216 251 10 114 c5 63 7
116 5 118 -2 2 -783 65 -809 65 -4 0 -9 -42 -13 -92z m452 16 c179 -14 327
-26 328 -27 0 -1 -3 -41 -6 -89 l-8 -87 -237 -276 c-131 -152 -236 -277 -234
-279 2 -2 101 -11 219 -20 118 -10 215 -18 216 -19 5 -4 -13 -188 -18 -193 -3
-3 -171 7 -373 22 l-368 28 7 90 7 90 239 277 239 277 -52 6 c-29 3 -125 11
-214 17 l-163 12 0 37 c0 20 3 65 6 99 l7 61 39 0 c21 0 186 -12 366 -26z"/>
<path d="M5148 2058 c-3 -40 -3 -75 -1 -77 2 -2 102 -12 223 -21 122 -10 222
-19 224 -21 2 -2 -110 -136 -249 -297 l-253 -292 -4 -70 c-2 -39 -3 -70 -3
-71 0 0 156 -12 347 -27 l346 -27 7 73 c4 40 5 75 3 76 -1 2 -104 11 -228 20
-123 9 -226 19 -228 21 -3 2 103 129 234 282 132 153 244 285 250 293 6 8 14
47 18 86 l7 70 -303 23 c-167 12 -322 24 -344 27 l-42 6 -4 -74z"/>
<path d="M1956 2089 c-3 -13 -27 -170 -52 -349 -43 -295 -46 -332 -37 -397 27
-189 162 -317 377 -358 273 -52 472 46 545 268 20 62 115 674 109 705 -3 13
-33 21 -152 38 -102 14 -149 17 -151 10 -2 -6 -25 -152 -50 -325 -49 -342 -60
-377 -121 -406 -64 -30 -171 -9 -218 44 -33 37 -31 108 13 411 23 157 44 296
46 310 l6 26 -128 18 c-70 10 -140 20 -155 23 -22 4 -28 1 -32 -18z m163 -44
c51 -7 95 -16 97 -18 2 -2 -16 -141 -40 -308 -52 -353 -51 -384 16 -446 49
-46 168 -68 235 -42 39 14 83 57 100 98 8 18 34 169 59 334 24 165 46 302 47
304 2 1 54 -5 115 -14 110 -16 111 -17 106 -42 -2 -14 -22 -150 -44 -301 -22
-151 -49 -305 -61 -341 -55 -174 -215 -273 -412 -255 -249 23 -393 134 -427
328 -10 58 -7 93 34 379 25 173 46 320 46 327 0 15 13 15 129 -3z"/>
<path d="M1970 1730 c-30 -215 -41 -319 -37 -365 16 -206 202 -334 467 -323
71 3 108 10 148 27 68 31 144 112 171 187 13 32 38 168 61 327 22 150 42 286
45 302 l5 31 -86 12 c-48 7 -88 11 -90 10 -1 -2 -22 -132 -44 -288 -46 -312
-62 -368 -121 -413 -72 -54 -168 -58 -264 -12 -75 36 -115 101 -115 186 0 21
18 162 41 314 22 152 39 278 37 280 -5 5 -128 25 -154 25 -19 0 -23 -17 -64
-300z"/>
</g>
</svg>
