<svg version="1.0" xmlns="http://www.w3.org/2000/svg"
 width="15.000000pt" height="15.000000pt" viewBox="0 0 225.000000 225.000000"
 preserveAspectRatio="xMidYMid meet" fill="#000000">
  <metadata>
    Created by SII
  </metadata>
  <g transform="translate(0.000000,224.000000) scale(0.100000,-0.100000)" >
    <path d="M203 2221 c-100 -34 -171 -114 -193 -215 -8 -36 -10 -311 -8 -916 l3
    -865 28 -57 c32 -64 80 -111 146 -142 46 -21 52 -21 946 -21 833 0 903 1 938
    17 69 32 115 76 149 146 l33 67 0 256 c0 202 -3 259 -14 272 -18 23 -73 21
    -102 -2 -23 -19 -24 -24 -29 -223 -6 -229 -12 -251 -88 -320 -80 -72 -38 -69
    -902 -66 -741 3 -777 4 -814 22 -47 24 -98 75 -123 124 -17 35 -18 81 -18 822
    0 756 1 786 19 824 25 50 72 97 122 122 36 17 69 19 422 24 326 4 384 7 392
    20 6 8 8 21 5 28 -3 8 -5 20 -5 27 0 7 -12 27 -26 44 l-26 31 -401 0 c-359 -1
    -407 -3 -454 -19z"/>
    <path d="M1715 2186 c-16 -8 -39 -21 -49 -29 -19 -14 -7 -28 240 -281 l259
    -267 32 35 c46 50 58 103 38 173 -15 50 -30 69 -157 199 -85 86 -157 151 -182
    164 -49 23 -135 26 -181 6z"/>
    <path d="M1107 1562 l-447 -447 263 -263 262 -262 448 448 447 447 -263 263
    -262 262 -448 -448z m511 164 c15 -8 62 -50 104 -93 58 -60 78 -88 83 -117 15
    -78 4 -93 -282 -378 -292 -290 -298 -295 -382 -269 -55 16 -197 164 -206 215
    -15 76 -1 94 273 373 142 144 269 267 283 272 36 14 96 13 127 -3z"/>
    <path d="M536 1009 c-13 -38 -76 -505 -70 -523 13 -43 45 -66 92 -66 36 0 492
    77 499 84 1 1 -114 118 -257 261 -171 171 -261 254 -264 244z"/>
  </g>
</svg>
